<?xml version="1.0" standalone="no"?>
<!DOCTYPE svg PUBLIC "-//W3C//DTD SVG 20010904//EN"
 "http://www.w3.org/TR/2001/REC-SVG-20010904/DTD/svg10.dtd">
<svg version="1.0" xmlns="http://www.w3.org/2000/svg"
 width="512.000000pt" height="512.000000pt" viewBox="0 0 512.000000 512.000000"
 preserveAspectRatio="xMidYMid meet">

<g transform="translate(0.000000,512.000000) scale(0.100000,-0.100000)"
fill="#000000" stroke="none">
<path d="M3036 5110 c-533 -67 -948 -423 -1084 -929 -21 -78 -25 -119 -26
-221 0 -69 6 -152 13 -185 39 -185 152 -443 274 -630 76 -115 82 -104 -66
-132 -73 -14 -146 -17 -352 -17 -286 0 -356 10 -506 73 -154 65 -327 212 -490
418 -82 104 -128 145 -154 138 -5 -2 -22 -6 -36 -9 -62 -14 -284 -219 -368
-341 -177 -255 -254 -586 -237 -1020 33 -885 432 -1555 1143 -1921 325 -167
709 -269 1188 -316 172 -17 685 -17 840 0 618 67 1050 246 1370 567 139 138
221 253 300 418 103 214 154 417 162 642 9 233 -32 396 -161 660 -113 229
-245 429 -439 668 -44 54 -78 99 -76 100 2 2 74 47 159 101 359 228 528 366
583 477 94 188 33 424 -139 538 -96 63 -140 73 -354 80 l-195 6 -53 75 c-211
300 -332 439 -477 548 -100 76 -270 158 -390 188 -112 28 -308 39 -429 24z
m476 -871 c150 -76 148 -298 -5 -374 -64 -31 -117 -32 -182 -1 -59 27 -77 46
-104 106 -53 117 11 252 136 286 55 14 102 9 155 -17z m-1997 -1923 c245 -62
577 -89 825 -67 74 6 248 30 385 52 447 72 573 53 741 -115 112 -112 158 -224
157 -381 -2 -233 -105 -440 -288 -580 -86 -66 -174 -108 -285 -136 -76 -19
-102 -21 -245 -16 -235 9 -399 48 -602 143 -229 106 -436 279 -620 514 -117
151 -303 468 -303 518 0 54 69 109 120 96 8 -2 60 -15 115 -28z"/>
</g>
</svg>
